 <svg version="1.0" xmlns="http://www.w3.org/2000/svg" width="700.000000pt" height="779.000000pt" viewBox="0 0 700.000000 779.000000" preserveAspectRatio="xMidYMid meet">
<metadata>
Created by potrace 1.12, written by Peter Selinger 2001-2015
</metadata>
<g transform="translate(0.000000,779.000000) scale(0.100000,-0.100000)" fill="#000000" stroke="none">
<path d="M2360 7782 c0 -4 48 -55 106 -112 299 -296 447 -524 510 -788 16 -67
34 -122 39 -122 12 0 41 99 55 185 23 143 2 331 -49 438 -41 85 -142 193 -247
263 -96 64 -149 86 -286 120 -103 25 -128 29 -128 16z"></path>
<path d="M4540 7775 c-126 -33 -178 -50 -230 -78 -146 -77 -278 -203 -331
-315 -35 -73 -59 -200 -59 -312 1 -110 42 -311 65 -311 4 0 23 58 41 129 36
142 99 280 187 412 72 107 113 154 277 323 80 81 147 152 148 158 5 13 -33 10
-98 -6z"></path>
<path d="M3487 7484 c-4 -4 -7 -20 -7 -35 0 -44 -38 -216 -67 -303 -43 -128
-164 -361 -243 -466 -87 -117 -253 -295 -328 -353 -258 -198 -586 -341 -1351
-587 -382 -123 -729 -327 -957 -561 -196 -203 -320 -403 -426 -689 -45 -120
-108 -388 -108 -458 0 -42 24 -42 46 1 46 89 230 311 375 452 134 129 253 218
464 345 241 145 322 184 769 370 120 50 245 104 277 120 78 40 82 39 73 -15
-5 -37 -3 -46 11 -52 22 -8 155 37 155 53 0 6 -27 38 -60 70 -33 32 -60 63
-60 70 0 10 30 11 129 7 84 -4 130 -2 134 5 4 5 -7 42 -23 80 -43 100 -42 102
33 102 34 0 86 3 115 6 l52 7 0 37 c0 20 -5 62 -11 94 -15 82 -7 86 92 48 45
-17 86 -29 90 -26 5 3 26 42 48 87 48 101 124 207 150 207 10 0 37 -15 61 -32
118 -90 125 -93 140 -54 28 76 84 186 94 186 6 0 30 -29 54 -63 76 -112 246
-267 292 -267 46 0 216 155 292 267 24 34 48 63 54 63 10 0 66 -110 94 -186
15 -39 22 -36 140 54 24 17 51 32 61 32 26 0 102 -106 151 -207 28 -61 44 -83
58 -83 10 0 51 12 90 26 88 33 95 28 81 -52 -6 -32 -11 -74 -11 -94 l0 -37 53
-7 c28 -3 80 -6 115 -6 74 0 75 -2 32 -102 -16 -38 -27 -75 -23 -80 4 -7 50
-9 134 -5 97 4 129 3 129 -7 0 -6 -27 -38 -60 -71 -33 -33 -60 -64 -60 -70 0
-15 135 -59 155 -51 14 5 16 14 11 51 -9 54 -5 55 72 16 32 -16 141 -63 242
-105 102 -42 194 -81 205 -86 11 -4 74 -32 140 -61 177 -76 271 -125 460 -239
211 -127 330 -216 464 -345 143 -138 329 -363 375 -452 22 -45 46 -43 46 2 0
67 -47 271 -95 415 -98 293 -232 515 -439 729 -228 234 -574 437 -957 561
-464 149 -836 288 -1014 378 -99 49 -258 148 -334 207 -57 43 -178 166 -263
266 -117 139 -239 354 -304 538 -30 85 -69 249 -76 325 -3 29 -18 43 -31 30z"></path>
<path d="M1995 7355 c-108 -23 -157 -46 -292 -139 -118 -82 -122 -89 -37 -79
296 34 565 -36 931 -244 156 -88 160 -86 82 40 -97 153 -163 228 -286 321 -78
58 -138 85 -228 103 -81 15 -89 15 -170 -2z"></path>
<path d="M4825 7356 c-81 -17 -143 -46 -218 -102 -123 -93 -189 -168 -286
-321 -78 -125 -73 -128 72 -44 362 208 661 286 947 247 60 -8 63 -7 51 8 -17
20 -157 117 -215 150 -56 31 -99 46 -181 62 -80 16 -88 16 -170 0z"></path>
<path d="M1747 7040 c-202 -34 -364 -135 -577 -357 -119 -123 -165 -182 -153
-194 6 -6 55 9 139 42 270 107 409 139 593 139 90 0 138 -6 216 -25 55 -14
145 -30 200 -36 129 -14 334 -4 420 21 113 32 235 82 235 96 0 8 -18 15 -47
18 -193 24 -321 65 -563 182 -244 118 -322 137 -463 114z"></path>
<path d="M5090 7043 c-65 -10 -148 -42 -294 -115 -88 -44 -212 -97 -275 -118
-106 -34 -152 -45 -294 -67 -26 -5 -48 -12 -49 -18 -1 -12 136 -67 237 -95
152 -42 419 -36 620 15 78 19 126 25 216 25 185 0 313 -29 573 -132 97 -38
153 -55 159 -49 13 13 -40 78 -178 217 -157 158 -207 197 -320 254 -148 74
-279 101 -395 83z"></path>
<path d="M2921 6676 c-27 -32 -173 -118 -248 -145 -183 -67 -367 -81 -881 -68
-385 11 -531 0 -692 -49 -168 -52 -275 -117 -386 -237 -142 -153 -229 -320
-290 -556 -13 -53 -27 -104 -30 -113 -10 -33 29 -19 136 48 341 212 754 366
1263 469 296 60 460 111 628 195 121 61 284 170 354 237 68 65 186 213 179
224 -8 13 -20 11 -33 -5z"></path>
<path d="M4046 6681 c-7 -11 111 -159 179 -224 70 -67 231 -175 350 -234 170
-86 350 -142 630 -198 504 -100 928 -258 1265 -469 107 -67 146 -81 136 -48
-3 9 -17 60 -30 113 -61 236 -148 403 -290 556 -111 120 -218 185 -386 237
-161 49 -308 60 -692 50 -520 -15 -694 -1 -884 68 -77 27 -186 91 -240 139
-23 21 -30 23 -38 10z"></path>
<path d="M2430 5142 c-85 -54 -156 -105 -158 -114 -2 -8 9 -23 24 -33 26 -16
30 -16 84 0 32 10 62 15 68 11 5 -3 13 -21 16 -40 8 -41 24 -56 105 -96 47
-23 87 -34 155 -42 129 -15 120 -7 113 -92 -3 -41 -3 -77 0 -80 3 -3 18 1 34
9 60 31 62 27 57 -102 -5 -123 -28 -219 -114 -480 -22 -70 -31 -110 -25 -116
7 -7 17 5 29 34 174 406 246 686 221 866 -18 135 -33 177 -78 206 -22 15 -60
31 -84 37 -69 15 -101 29 -119 52 l-16 22 -37 -30 c-64 -50 -75 -57 -83 -50
-3 4 12 23 36 42 23 20 42 40 42 45 0 12 -74 49 -97 49 -10 -1 -88 -45 -173
-98z"></path>
<path d="M4348 5219 c-21 -11 -38 -24 -38 -29 0 -5 18 -24 40 -41 22 -18 40
-36 40 -41 0 -18 -26 -6 -71 32 -54 45 -65 48 -74 21 -4 -14 -24 -25 -63 -36
-97 -27 -138 -45 -162 -70 -23 -24 -43 -101 -55 -210 -8 -73 25 -310 56 -406
25 -76 123 -336 150 -396 11 -23 19 -46 19 -51 0 -13 29 -36 36 -29 3 3 -6 38
-19 79 -29 84 -99 321 -115 389 -6 25 -14 89 -18 142 -6 88 -5 97 11 103 11 5
31 0 48 -10 17 -9 34 -13 38 -9 5 5 4 37 -2 71 -8 46 -8 66 0 76 7 8 44 16 91
20 85 7 170 34 232 72 27 17 40 34 48 63 6 22 15 43 21 46 5 4 35 -1 65 -11
52 -16 58 -16 83 -1 14 9 26 23 26 32 0 19 -304 215 -333 215 -9 -1 -34 -10
-54 -21z"></path>
<path d="M1760 5101 c-36 -21 -157 -87 -270 -146 -296 -156 -478 -268 -697
-428 -140 -103 -314 -294 -411 -452 -66 -107 -136 -310 -171 -490 -52 -274
-36 -626 47 -1025 20 -96 40 -113 55 -45 72 347 206 621 473 962 129 165 392
412 684 644 404 320 461 371 517 464 32 54 63 137 63 168 0 11 -19 47 -43 81
-58 81 -86 133 -122 224 -17 45 -36 78 -45 79 -8 1 -44 -15 -80 -36z"></path>
<path d="M5141 5121 c-6 -10 -20 -45 -32 -77 -26 -70 -57 -127 -116 -210 -48
-69 -50 -80 -26 -150 44 -128 117 -211 363 -405 460 -364 577 -465 748 -650
338 -366 526 -708 609 -1114 6 -24 14 -40 23 -40 14 0 31 74 79 335 20 105 34
365 28 505 -13 286 -91 584 -199 760 -96 156 -271 349 -406 448 -239 174 -405
276 -757 462 -143 75 -264 141 -269 146 -16 14 -35 10 -45 -10z"></path>
<path d="M1914 4248 c-22 -19 -86 -72 -144 -119 -185 -148 -486 -406 -585
-501 -206 -197 -360 -465 -425 -743 -88 -375 -25 -865 169 -1319 98 -228 307
-611 333 -611 10 0 14 51 19 235 8 301 34 483 114 785 76 286 215 599 382 855
47 72 208 281 254 331 45 48 166 187 232 267 54 65 77 101 77 120 0 15 -30 88
-68 162 -77 155 -84 160 -167 111 -68 -40 -250 -198 -360 -312 -266 -277 -483
-660 -586 -1034 -30 -108 -76 -335 -85 -413 -11 -108 -18 -58 -16 116 4 263
35 429 125 662 144 378 422 744 797 1050 119 98 115 79 45 250 -62 150 -63
151 -111 108z"></path>
<path d="M5033 4267 c-15 -17 -104 -237 -110 -268 -4 -22 8 -36 99 -110 269
-219 490 -473 651 -749 82 -141 112 -209 197 -450 40 -112 68 -312 71 -500 1
-85 1 -164 0 -175 -2 -11 -15 52 -30 140 -82 467 -234 824 -503 1178 -121 159
-393 418 -513 488 -83 49 -90 44 -167 -111 -37 -74 -68 -147 -68 -162 0 -19
22 -54 77 -120 66 -80 187 -219 232 -267 46 -50 207 -259 254 -331 167 -256
306 -569 382 -855 80 -302 106 -484 114 -785 5 -187 9 -235 19 -235 16 0 132
198 227 386 286 565 379 1102 271 1559 -62 264 -219 537 -417 725 -118 112
-711 614 -765 648 -7 4 -16 1 -21 -6z"></path>
<path d="M2906 3783 c-15 -15 -4 -70 26 -126 38 -70 71 -94 216 -158 205 -88
298 -138 310 -165 7 -14 12 -75 12 -143 l0 -119 -57 -49 c-99 -84 -161 -124
-231 -149 -86 -30 -142 -30 -242 1 -44 15 -84 24 -89 21 -20 -13 -33 -102 -21
-147 14 -54 51 -113 85 -135 25 -16 26 -16 73 28 57 53 162 128 217 155 82 41
164 56 295 56 134 0 213 -15 300 -59 53 -26 194 -129 229 -168 14 -14 30 -26
37 -26 23 0 85 84 100 138 13 44 14 62 4 103 -7 28 -18 53 -24 55 -6 2 -45 -7
-85 -21 -161 -54 -279 -17 -473 148 l-58 49 0 119 c0 65 5 128 10 141 14 30
52 51 246 138 224 100 237 109 279 184 32 58 45 113 29 129 -4 3 -31 -11 -62
-33 -59 -43 -72 -46 -202 -59 -51 -6 -113 -20 -155 -36 -61 -24 -84 -28 -175
-28 -91 0 -114 4 -175 28 -42 16 -104 30 -155 36 -130 13 -143 16 -202 59 -31
22 -58 36 -62 33z"></path>
<path d="M2555 3660 c-18 -29 107 -160 198 -207 41 -21 70 -27 139 -31 48 -2
95 -2 104 2 27 10 0 33 -49 40 -103 17 -218 75 -320 164 -50 44 -62 49 -72 32z"></path>
<path d="M2475 3618 c-4 -10 9 -48 32 -95 52 -106 145 -201 228 -233 56 -20
68 -22 170 -14 61 5 175 9 255 10 80 0 149 2 154 2 22 4 -42 54 -93 73 -51 19
-66 20 -166 13 -212 -16 -252 -13 -328 24 -50 25 -81 50 -124 99 -122 140
-121 139 -128 121z"></path>
<path d="M2264 3208 c-197 -235 -234 -289 -341 -488 -143 -267 -237 -563 -294
-925 -8 -51 -13 -191 -13 -390 -1 -258 2 -327 17 -410 33 -178 86 -356 144
-485 50 -109 152 -246 166 -223 3 5 -1 35 -9 68 -24 101 -54 355 -54 461 0
101 28 337 55 469 57 275 157 554 303 840 109 213 163 303 343 572 60 89 109
164 109 167 0 2 -30 27 -67 54 -136 101 -178 165 -199 309 -16 110 -20 123
-32 123 -5 0 -63 -64 -128 -142z"></path>
<path d="M4595 3338 c-2 -7 -11 -57 -19 -111 -22 -145 -63 -208 -198 -309 -38
-27 -68 -52 -68 -54 0 -2 50 -80 112 -172 357 -532 557 -970 644 -1412 29
-149 54 -365 54 -469 0 -105 -28 -340 -54 -456 -15 -70 -12 -83 16 -58 88 79
182 277 242 508 57 223 61 258 61 585 0 366 -16 492 -94 785 -79 293 -226 610
-379 815 -79 106 -293 360 -304 360 -5 0 -10 -6 -13 -12z"></path>
<path d="M3847 3163 c-23 -22 10 -45 125 -85 77 -26 124 -21 213 23 68 34 83
56 35 52 -142 -14 -230 -14 -293 1 -79 19 -72 18 -80 9z"></path>
<path d="M2677 2548 c-13 -24 -55 -95 -92 -158 -228 -388 -350 -682 -402 -967
-22 -125 -25 -508 -5 -623 52 -287 106 -432 237 -635 51 -80 120 -165 134
-165 3 0 6 222 7 492 0 288 5 541 11 608 51 511 86 706 196 1091 32 108 57
204 57 213 0 30 -92 186 -110 186 -4 0 -19 -19 -33 -42z"></path>
<path d="M4262 2563 c-35 -50 -82 -142 -82 -159 0 -9 27 -110 59 -223 164
-572 220 -1061 208 -1829 -3 -193 -1 -352 3 -352 16 0 92 96 148 185 103 166
155 289 191 455 41 185 46 233 46 460 -1 250 -13 348 -67 518 -16 53 -34 112
-40 131 -18 61 -119 295 -165 381 -86 160 -264 460 -274 460 -4 0 -16 -12 -27
-27z"></path>
<path d="M3006 2292 c-25 -41 -81 -233 -110 -377 -34 -173 -65 -472 -66 -626
0 -268 62 -544 155 -684 73 -108 200 -225 246 -225 24 0 24 -3 -5 83 -47 136
-101 363 -146 612 -40 223 -65 691 -54 1023 5 141 3 202 -4 202 -6 0 -13 -3
-16 -8z"></path>
<path d="M3974 2099 c7 -217 -6 -659 -24 -805 -35 -285 -103 -607 -172 -818
-16 -49 -27 -91 -24 -93 22 -22 142 67 215 159 28 35 66 96 86 136 67 136 115
393 115 611 0 91 -23 359 -40 476 -36 241 -114 521 -149 533 -11 4 -13 -30 -7
-199z"></path>
<path d="M3302 2228 c-15 -15 -16 -160 -2 -352 44 -599 59 -721 110 -876 48
-144 78 -212 92 -208 14 5 72 149 103 254 37 128 55 282 95 830 14 191 13 337
-2 352 -8 8 -67 12 -198 12 -131 0 -190 -4 -198 -12z"></path>
</g>
</svg>